<svg id="Layer_1" enable-background="new 0 0 512.001 512.001" height="512" viewBox="0 0 512.001 512.001" width="512" xmlns="http://www.w3.org/2000/svg"><g id="XMLID_966_"><path id="XMLID_1222_" d="m502 502h-492v-91.041c15.096 15.096 39.571 15.096 54.667 0 15.096-15.096 39.571-15.096 54.667 0 15.096 15.096 39.571 15.096 54.667 0 15.096-15.096 39.571-15.096 54.667 0 15.096 15.096 39.571 15.096 54.667 0 15.096-15.096 39.571-15.096 54.667 0 15.096 15.096 39.571 15.096 54.667 0 15.096-15.096 39.571-15.096 54.667 0 15.096 15.096 39.571 15.096 54.667 0z" fill="#99ebfa"/><path id="XMLID_502_" d="m336.552 433.649c7.27-24.974 11.168-51.384 11.168-78.705 0-69.964-25.561-133.953-67.853-183.146-16.308 11.379-10.683 7.454-26.991 18.833 26.621 48.814 41.749 104.796 41.749 164.313 0 28.804-3.544 56.781-10.218 83.517z" fill="#ddb9a3"/><path id="XMLID_1557_" d="m174.806 198.926-5.165 5.165c-21.981 21.981-31.468 53.523-25.261 83.983l114.408-114.408c-30.459-6.209-62.001 3.279-83.982 25.26z" fill="#e0ef9b"/><path id="XMLID_496_" d="m181.833 130.275h-7.304c-31.086 0-60.098 15.595-77.247 41.523h161.798c-17.148-25.928-46.161-41.523-77.247-41.523z" fill="#d5ea79"/><path id="XMLID_495_" d="m296.653 82.65-5.165 5.165c-21.981 21.981-31.468 53.523-25.261 83.983l114.409-114.408c-30.46-6.208-62.002 3.279-83.983 25.26z" fill="#d5ea79"/><path id="XMLID_494_" d="m222.837 87.247v7.304c0 31.086 15.595 60.098 41.523 77.247v-161.798c-25.928 17.149-41.523 46.161-41.523 77.247z" fill="#e0ef9b"/><path id="XMLID_1553_" d="m353.442 130.275h-7.304c-31.086 0-60.098 15.595-77.247 41.523h161.798c-17.149-25.928-46.161-41.523-77.247-41.523z" fill="#e0ef9b"/><g fill="#c68a65"><circle id="XMLID_1125_" cx="272.554" cy="197.475" r="25.677"/><circle id="XMLID_1131_" cx="235.602" cy="233.453" r="25.677"/><circle id="XMLID_1134_" cx="285.418" cy="247.285" r="25.677"/></g><path id="XMLID_968_" d="m502 502c-55.068-53.08-119.772-83.667-189-83.667s-133.932 30.587-189 83.667z" fill="#ffcd69"/><g id="XMLID_593_"><path id="XMLID_605_" d="m394.744 422.374c1.738-1.321 3.412-2.761 4.994-4.343 5.412-5.413 12.607-8.393 20.262-8.393s14.85 2.98 20.262 8.393c18.97 18.97 49.838 18.972 68.81 0 3.905-3.905 3.905-10.237 0-14.143-3.906-3.905-10.236-3.905-14.143 0-11.172 11.173-29.353 11.172-40.524 0-18.971-18.97-49.838-18.97-68.809 0-8.832 8.832-22.157 10.781-32.953 5.437 3.37-17.851 5.078-36.087 5.078-54.381 0-58.508-17.263-114.82-49.926-163.035-.562-3.573-1.658-6.97-3.201-10.111h126.095c3.682 0 7.065-2.022 8.809-5.265 1.742-3.243 1.563-7.181-.468-10.251-19.054-28.808-51.049-46.007-85.587-46.007h-7.305c-5.205 0-10.351.398-15.405 1.16l56.973-56.973c2.603-2.604 3.565-6.426 2.505-9.952s-3.972-6.183-7.579-6.918c-33.844-6.899-68.629 3.564-93.05 27.987l-5.166 5.165c-3.674 3.674-7.025 7.586-10.056 11.69v-82.434c0-3.681-2.022-7.065-5.266-8.808-3.243-1.744-7.181-1.563-10.251.467-28.808 19.054-46.007 51.049-46.007 85.588v7.304c0 11.15 1.802 22.032 5.199 32.302-11.398-4.289-23.63-6.578-36.203-6.578h-7.304c-34.539 0-66.534 17.199-85.588 46.007-2.031 3.071-2.21 7.009-.467 10.251 1.742 3.243 5.126 5.265 8.808 5.265h82.143c-4.105 3.031-8.017 6.382-11.691 10.056l-5.164 5.164c-24.423 24.423-34.886 59.208-27.988 93.051.735 3.607 3.394 6.519 6.919 7.579.948.285 1.917.424 2.879.424 2.614 0 5.169-1.026 7.072-2.929l50.335-50.335c4.755 14.12 18.111 24.322 33.814 24.322 6.699 0 12.971-1.859 18.333-5.084 4.667 8.73 12.854 15.305 22.656 17.809 5.328 23.865 8.036 48.417 8.036 73.089 0 14.821-1 29.648-2.937 44.284-1.911 1.421-3.734 2.967-5.427 4.659-11.172 11.173-29.352 11.173-40.523 0-18.971-18.971-49.839-18.97-68.81 0-11.17 11.172-29.351 11.174-40.524 0-18.971-18.97-49.838-18.97-68.809 0-11.171 11.172-29.352 11.174-40.524 0-3.906-3.904-10.236-3.904-14.143 0-3.905 3.905-3.905 10.237 0 14.143 18.971 18.97 49.839 18.972 68.81 0 11.172-11.173 29.352-11.173 40.523 0 18.97 18.97 49.838 18.972 68.81 0 5.412-5.413 12.608-8.393 20.263-8.393 7.653 0 14.85 2.98 20.262 8.393 2.029 2.029 4.213 3.844 6.513 5.461-38.029 13.777-74.505 36.815-108.085 68.509h-110.024c-5.522 0-10 4.477-10 10s4.478 10 10 10h265.983c5.522 0 10-4.477 10-10s-4.478-10-10-10h-125.868c50.155-41.748 106.021-63.667 162.885-63.667s112.73 21.92 162.885 63.667h-109.901c-5.522 0-10 4.477-10 10s4.478 10 10 10h136.016c4.078 0 7.748-2.477 9.273-6.258 1.526-3.782.603-8.111-2.334-10.941-35.311-34.038-73.91-58.405-114.195-72.427zm-75.109-165.002c5.506 14.264 9.782 28.974 12.79 44.003l-31.107 5.07c-1.169-8.523-2.643-16.993-4.425-25.386 10.913-3.718 19.462-12.58 22.742-23.687zm-16.161 68.985 32.149-5.239c1.386 11.154 2.099 22.445 2.099 33.827v.056h-33.095c0-.019.001-.037.001-.056-.002-9.556-.393-19.094-1.154-28.588zm-15.242-128.882c0 8.645-7.033 15.677-15.678 15.677s-15.677-7.033-15.677-15.677 7.032-15.677 15.677-15.677 15.678 7.033 15.678 15.677zm65.211-57.2c20.884 0 40.611 7.809 55.639 21.523h-118.583c15.027-13.714 34.755-21.523 55.639-21.523zm-54.885-45.389 5.165-5.165h.001c14.767-14.768 34.238-23.195 54.563-24.124l-83.852 83.851c.93-20.324 9.356-39.795 24.123-54.562zm-65.721-7.639c0-20.884 7.81-40.611 21.523-55.639v118.582c-13.714-15.028-21.523-34.755-21.523-55.639zm-58.307 53.028h7.304c20.884 0 40.612 7.809 55.64 21.523h-118.584c15.027-13.714 34.756-21.523 55.64-21.523zm2.183 70.886 5.164-5.164c14.768-14.767 34.238-23.195 54.562-24.124l-83.85 83.851c.929-20.324 9.357-39.795 24.124-54.563zm58.889 37.97c-8.645 0-15.678-7.033-15.678-15.678s7.033-15.677 15.678-15.677 15.678 7.033 15.678 15.677-7.034 15.678-15.678 15.678zm34.138-1.846c0-8.645 7.033-15.677 15.678-15.677s15.678 7.033 15.678 15.677-7.033 15.677-15.678 15.677-15.678-7.032-15.678-15.677zm30.805 161.376c1.694-11.127 2.861-22.371 3.495-33.661h32.946c-.841 11.482-2.407 22.882-4.681 34.106-6.416-.513-12.853-.773-19.305-.773-4.158.001-8.311.115-12.455.328z"/><path id="XMLID_652_" d="m320.98 492c-2.63 0-5.21 1.07-7.069 2.93-1.86 1.86-2.931 4.44-2.931 7.07s1.07 5.21 2.931 7.07c1.859 1.86 4.439 2.93 7.069 2.93s5.21-1.07 7.07-2.93 2.93-4.44 2.93-7.07-1.069-5.21-2.93-7.07c-1.86-1.86-4.44-2.93-7.07-2.93z"/></g></g></svg>