<svg id="Layer_1" height="512" viewBox="0 0 128 128" width="512" xmlns="http://www.w3.org/2000/svg" data-name="Layer 1"><path d="m121.5 6.5a27.414 27.414 0 0 1 -.4 2.87v.01c-1.62 8.95-9.7 38.09-48.97 77.36a325.643 325.643 0 0 1 -40.5 34.76l-2.7-19.96-.29-2.18-2.18-.29-19.96-2.7a325.633 325.633 0 0 1 34.76-40.5c39.27-39.27 68.4-47.35 77.36-48.97h.01a27.45 27.45 0 0 1 2.87-.4z" fill="#499251"/><g fill="#241429"><path d="m122.737 5.263a1.73 1.73 0 0 0 -1.335-.51c-1.325.073-33.009 2.333-79.46 47.98a1.75 1.75 0 1 0 2.453 2.5c34.617-34.021 61.153-43.462 71.935-46.033l-17.445 17.441a1.75 1.75 0 1 0 2.475 2.475l17.48-17.481a75.977 75.977 0 0 1 -2.329 7.866 1.75 1.75 0 1 0 3.3 1.162c3.113-8.846 3.424-13.856 3.436-14.065a1.747 1.747 0 0 0 -.51-1.335z"/><path d="m37.237 61.705a1.75 1.75 0 0 0 1.256-.53q.787-.812 1.583-1.621a1.751 1.751 0 0 0 -2.5-2.453q-.8.819-1.6 1.635a1.75 1.75 0 0 0 1.255 2.97z"/><path d="m115.1 27.8a1.749 1.749 0 0 0 -2.321.858c-5.806 12.629-17.788 32.742-41.884 56.842a329.116 329.116 0 0 1 -37.922 32.881l-2.483-18.396 20.132-20.132.633-.633a1.75 1.75 0 0 0 -2.475-2.475l-.633.633-20.132 20.132-18.393-2.483a313.077 313.077 0 0 1 24.269-29.027 1.75 1.75 0 1 0 -2.553-2.4 309.2 309.2 0 0 0 -26.266 31.76 1.751 1.751 0 0 0 1.193 2.746l20.818 2.81 2.81 20.818a1.75 1.75 0 0 0 2.746 1.193 326.184 326.184 0 0 0 40.73-34.954c19.641-19.641 33.97-39.106 42.591-57.853a1.75 1.75 0 0 0 -.86-2.32z"/><path d="m81.918 70.071a219.826 219.826 0 0 0 15.482-19.828 1.75 1.75 0 1 0 -2.883-1.984 216.2 216.2 0 0 1 -15.235 19.51 1.75 1.75 0 0 0 2.637 2.3z"/></g></svg>